<svg xmlns="http://www.w3.org/2000/svg" width="930" height="754" viewBox="0 0 930 754">
  <g id="illustration" transform="translate(-111 -234)">
    <ellipse id="Ellipse_16" data-name="Ellipse 16" cx="310" cy="306" rx="310" ry="306" transform="translate(421 376)" fill="#fff"/>
    <ellipse id="Ellipse_15" data-name="Ellipse 15" cx="310" cy="306" rx="310" ry="306" transform="translate(111 234)" fill="#fff"/>
    <g id="undraw_Hire_re_gn5j" transform="translate(111 376)">
      <path id="Path_22" data-name="Path 22" d="M533.289,505.371H169.451a18.521,18.521,0,0,1-18.5-18.5V264.717a14.1,14.1,0,0,1,14.088-14.088H537.492a14.313,14.313,0,0,1,14.3,14.3V486.871a18.521,18.521,0,0,1-18.5,18.5Z" transform="translate(-150.951 -250.629)" fill="#fff"/>
      <path id="Path_23" data-name="Path 23" d="M533.289,505.371H169.451a18.521,18.521,0,0,1-18.5-18.5V264.717a14.1,14.1,0,0,1,14.088-14.088H537.492a14.313,14.313,0,0,1,14.3,14.3V486.871a18.521,18.521,0,0,1-18.5,18.5ZM165.039,254.629a10.1,10.1,0,0,0-10.088,10.088V486.871a14.517,14.517,0,0,0,14.5,14.5H533.289a14.517,14.517,0,0,0,14.5-14.5V264.926a10.309,10.309,0,0,0-10.3-10.3Z" transform="translate(-150.951 -250.629)" fill="#e6e6e6"/>
      <path id="Path_24" data-name="Path 24" d="M317.062,449.125H208.042a11.018,11.018,0,0,1-10.9-9.563,9.975,9.975,0,0,1-.1-1.437V317.875a11.012,11.012,0,0,1,11-11h109.02a11.012,11.012,0,0,1,11,11v120.25a11.012,11.012,0,0,1-11,11Zm-109.02-136.25a5.006,5.006,0,0,0-5,5v120.25a4.26,4.26,0,0,0,.038.615,5.015,5.015,0,0,0,4.962,4.385h109.02a5.006,5.006,0,0,0,5-5V317.875a5.006,5.006,0,0,0-5-5Z" transform="translate(-150.951 -250.629)" fill="#e6e6e6"/>
      <path id="Path_25" data-name="Path 25" d="M497.7,410.025h-132a8,8,0,0,1,0-16h132a8,8,0,1,1,0,16Z" transform="translate(-150.951 -250.629)" fill="#e6e6e6"/>
      <path id="Path_26" data-name="Path 26" d="M437.7,376.025h-72a8,8,0,0,1,0-16h72a8,8,0,1,1,0,16Z" transform="translate(-150.951 -250.629)" fill="#e6e6e6"/>
      <path id="Path_27" data-name="Path 27" d="M298.5,374.695c0,17.673-16.342,15-36.5,15s-36.5,2.673-36.5-15,7.982-49,36.5-49C291.5,325.695,298.5,357.022,298.5,374.695Z" transform="translate(-150.951 -250.629)" fill="#2f2e41"/>
      <path id="Path_28" data-name="Path 28" d="M299.975,404.439a9.064,9.064,0,0,0-3.96-4.84,7.869,7.869,0,0,0-1.12-.57,9.054,9.054,0,0,0-11.98,11.47l14.54,33.05h19.15Z" transform="translate(-150.951 -250.629)" fill="#87aecf"/>
      <path id="Path_29" data-name="Path 29" d="M236.525,406.239a9.055,9.055,0,0,0-12.49,5.17l-13.54,31.85a7.878,7.878,0,0,0,2.13.29h16.99l11.48-26.08a9.037,9.037,0,0,0-4.57-11.23Z" transform="translate(-150.951 -250.629)" fill="#87aecf"/>
      <circle id="Ellipse_12" data-name="Ellipse 12" cx="24.561" cy="24.561" r="24.561" transform="translate(86.365 89.914)" fill="#ffb8b8"/>
      <path id="Path_30" data-name="Path 30" d="M296.445,399.989c-.14-.13-.28-.27-.43-.39a15.953,15.953,0,0,0-12.75-3.97L238,401.359a16.062,16.062,0,0,0-14.02,17.44c.62,6.98,1.62,15.79,3.22,24.75h71.5l2.63-30.56a16.035,16.035,0,0,0-4.89-13Z" transform="translate(-150.951 -250.629)" fill="#87aecf"/>
      <path id="Path_31" data-name="Path 31" d="M233.5,362.695h9.714l4.286-12,.857,12H253l2.5-7,.5,7h34.5a26,26,0,0,0-26-26h-5a26,26,0,0,0-26,26Z" transform="translate(-150.951 -250.629)" fill="#2f2e41"/>
      <path id="Path_32" data-name="Path 32" d="M648.211,486.871V264.926a14.313,14.313,0,0,1,14.3-14.3h372.453a14.1,14.1,0,0,1,14.088,14.088V486.871a18.521,18.521,0,0,1-18.5,18.5H666.711A18.521,18.521,0,0,1,648.211,486.871Z" transform="translate(-150.951 -250.629)" fill="#fff"/>
      <path id="Path_33" data-name="Path 33" d="M648.211,486.871V264.926a14.313,14.313,0,0,1,14.3-14.3h372.453a14.1,14.1,0,0,1,14.088,14.088V486.871a18.521,18.521,0,0,1-18.5,18.5H666.711A18.521,18.521,0,0,1,648.211,486.871Zm14.3-232.242a10.309,10.309,0,0,0-10.3,10.3V486.871a14.517,14.517,0,0,0,14.5,14.5h363.838a14.516,14.516,0,0,0,14.5-14.5V264.717a10.1,10.1,0,0,0-10.088-10.088Z" transform="translate(-150.951 -250.629)" fill="#e6e6e6"/>
      <path id="Path_34" data-name="Path 34" d="M871.938,438.125V317.875a11.012,11.012,0,0,1,11-11h109.02a11.012,11.012,0,0,1,11,11v120.25a9.971,9.971,0,0,1-.095,1.437,11.018,11.018,0,0,1-10.905,9.563H882.938a11.012,11.012,0,0,1-11-11Zm11-125.25a5.006,5.006,0,0,0-5,5v120.25a5.006,5.006,0,0,0,5,5h109.02a5.015,5.015,0,0,0,4.962-4.385,4.252,4.252,0,0,0,.038-.615V317.875a5.006,5.006,0,0,0-5-5Z" transform="translate(-150.951 -250.629)" fill="#e6e6e6"/>
      <path id="Path_35" data-name="Path 35" d="M694.3,402.025a8.009,8.009,0,0,1,8-8h132a8,8,0,0,1,0,16h-132a8.009,8.009,0,0,1-8-8Z" transform="translate(-150.951 -250.629)" fill="#e6e6e6"/>
      <path id="Path_36" data-name="Path 36" d="M694.3,368.025a8.009,8.009,0,0,1,8-8h72a8,8,0,0,1,0,16h-72A8.009,8.009,0,0,1,694.3,368.025Z" transform="translate(-150.951 -250.629)" fill="#e6e6e6"/>
      <path id="Path_37" data-name="Path 37" d="M910.505,353.6c7.011,13.784,12.536,28,28,28a28,28,0,1,0,0-56C922.79,325.408,897.457,327.949,910.505,353.6Z" transform="translate(-150.951 -250.629)" fill="#2f2e41"/>
      <circle id="Ellipse_13" data-name="Ellipse 13" cx="24.561" cy="24.561" r="24.561" transform="translate(761.616 82.399)" fill="#a0616a"/>
      <path id="Path_38" data-name="Path 38" d="M970.66,402.359a42.784,42.784,0,0,0-5.15-4.76,41.725,41.725,0,0,0-28.39-8.8q-.615.03-1.23.09a41.825,41.825,0,0,0-30.16,16.64,42.347,42.347,0,0,0-7.52,34.15c.27,1.25.51,2.51.74,3.77h81.42l.94-6.3a42.094,42.094,0,0,0-10.65-34.79Z" transform="translate(-150.951 -250.629)" fill="#3f3d56"/>
      <path id="Path_39" data-name="Path 39" d="M983.13,408.929a14.254,14.254,0,0,0-13.93-11.8c-.13,0-.27.01-.4.01a14.348,14.348,0,0,0-3.29.46,14.2,14.2,0,0,0-10.06,17.43l7.69,28.42h25.88Z" transform="translate(-150.951 -250.629)" fill="#3f3d56"/>
      <path id="Path_40" data-name="Path 40" d="M926.18,401.479a14.175,14.175,0,0,0-4.09-4.88,13.769,13.769,0,0,0-4.02-2.1,13.35,13.35,0,0,0-1.81-.48,14.272,14.272,0,0,0-16.1,9.24l-14.08,40.19H912.8l13.63-29.56a14.091,14.091,0,0,0-.25-12.41Z" transform="translate(-150.951 -250.629)" fill="#3f3d56"/>
      <path id="Path_41" data-name="Path 41" d="M911.064,343.708a33.4,33.4,0,0,0,19.091,5.9,20.472,20.472,0,0,1-8.114,3.338,67.359,67.359,0,0,0,27.514.155,17.807,17.807,0,0,0,5.76-1.978,7.289,7.289,0,0,0,3.555-4.755c.6-3.449-2.084-6.582-4.876-8.693a35.967,35.967,0,0,0-30.224-6.04c-3.376.873-6.759,2.347-8.951,5.059s-2.843,6.892-.753,9.684Z" transform="translate(-150.951 -250.629)" fill="#2f2e41"/>
      <path id="Path_42" data-name="Path 42" d="M781.919,649.371H418.081a18.521,18.521,0,0,1-18.5-18.5V408.717a14.1,14.1,0,0,1,14.088-14.088H786.122a14.313,14.313,0,0,1,14.3,14.3V630.871a18.521,18.521,0,0,1-18.5,18.5Z" transform="translate(-150.951 -250.629)" fill="#fff"/>
      <path id="Path_43" data-name="Path 43" d="M781.919,649.371H418.081a18.521,18.521,0,0,1-18.5-18.5V408.717a14.1,14.1,0,0,1,14.088-14.088H786.122a14.313,14.313,0,0,1,14.3,14.3V630.871a18.521,18.521,0,0,1-18.5,18.5ZM413.669,398.629a10.1,10.1,0,0,0-10.088,10.088V630.871a14.517,14.517,0,0,0,14.5,14.5H781.919a14.516,14.516,0,0,0,14.5-14.5V408.926a10.309,10.309,0,0,0-10.3-10.3Z" transform="translate(-150.951 -250.629)" fill="#3f3d56"/>
      <path id="Path_44" data-name="Path 44" d="M565.692,593.125H456.672a11.018,11.018,0,0,1-10.905-9.563,9.975,9.975,0,0,1-.1-1.437V461.875a11.012,11.012,0,0,1,11-11h109.02a11.012,11.012,0,0,1,11,11v120.25A11.012,11.012,0,0,1,565.692,593.125Zm-109.02-136.25a5.006,5.006,0,0,0-5,5v120.25a4.26,4.26,0,0,0,.038.615,5.015,5.015,0,0,0,4.962,4.385h109.02a5.006,5.006,0,0,0,5-5V461.875a5.006,5.006,0,0,0-5-5Z" transform="translate(-150.951 -250.629)" fill="#e6e6e6"/>
      <path id="Path_45" data-name="Path 45" d="M509.6,472.859c-7.1-3.3-15.81-4.384-23.032-1.316s-12.145,10.932-9.809,17.891c1.059,3.155,3.47,6.258,2.531,9.445-.723,2.453-3.245,4.072-5.723,5.224s-5.187,2.12-6.978,4.062-2.165,5.285.073,6.791c.737.5,1.659.732,2.374,1.254a3.772,3.772,0,0,1,1.164,4.222,8.894,8.894,0,0,1-2.851,3.751c-2.541,2.191-5.9,4.7-5.109,7.809a5.478,5.478,0,0,0,3.7,3.458,18.366,18.366,0,0,0,5.427.716l74.966,2.362a28.424,28.424,0,0,0,7.4-.414,8.762,8.762,0,0,0,5.813-3.9c1.436-2.657.493-5.931-1.28-8.412s-4.282-4.439-6.355-6.717-3.769-5.123-3.4-8.067c.293-2.357,1.847-4.395,2.963-6.537s1.764-4.818.319-6.789c-2.037-2.777-6.927-2.526-9.243-5.113-1.748-1.953-1.41-4.763-1.584-7.281-.418-6.057-4.611-11.776-10.58-14.433a20.831,20.831,0,0,0-18.953,1.291Z" transform="translate(-150.951 -250.629)" fill="#2f2e41"/>
      <circle id="Ellipse_14" data-name="Ellipse 14" cx="24.561" cy="24.561" r="24.561" transform="translate(336.861 238.195)" fill="#a0616a"/>
      <path id="Path_46" data-name="Path 46" d="M544.619,569.665a23.788,23.788,0,0,0-12.68-20.9c-.31-.17-.63-.32-.95-.47a23.619,23.619,0,0,0-8.81-2.24l-23.38-1.31a23.6,23.6,0,0,0-9.7,1.49,22.679,22.679,0,0,0-2.21.96,23.538,23.538,0,0,0-6.12,4.35,23.806,23.806,0,0,0-7.06,17.94l.42,9.91,2.94,7.63h65.37a17.957,17.957,0,0,0,2.1-3.18,15.919,15.919,0,0,0,.08-14.18Z" transform="translate(-150.951 -250.629)" fill="#73c1ce"/>
      <path id="Path_47" data-name="Path 47" d="M543.019,556.525a14.143,14.143,0,0,0-4.84-5.74,14.451,14.451,0,0,0-5.01-2.18,14.663,14.663,0,0,0-2.18-.31,14.086,14.086,0,0,0-4.3.37,14.274,14.274,0,0,0-9.19,20.49l8.99,17.02.45.85h30.19Z" transform="translate(-150.951 -250.629)" fill="#73c1ce"/>
      <path id="Path_48" data-name="Path 48" d="M493.609,547.655a14.341,14.341,0,0,0-4.51-1.42,13.9,13.9,0,0,0-3.53-.05,14.257,14.257,0,0,0-12.36,11.29l-6.09,29.55h23.82l4.45-1.82,5.54-21.26A14.32,14.32,0,0,0,493.609,547.655Z" transform="translate(-150.951 -250.629)" fill="#73c1ce"/>
      <path id="Path_49" data-name="Path 49" d="M487.246,509.893c7.756-.623,14.2-8.371,13.39-16.111a13.009,13.009,0,0,0,11.141,13.246c3.558.392,7.458-.684,10.555,1.111,3.43,1.988,4.528,6.816,8.1,8.533,3.453,1.659,7.838-.6,9.543-4.033s1.287-7.55.157-11.21a31.652,31.652,0,0,0-52.689-12.975c-3.261,3.28-5.851,7.461-6.271,12.068s1.717,9.605,5.854,11.675Z" transform="translate(-150.951 -250.629)" fill="#2f2e41"/>
      <path id="Path_50" data-name="Path 50" d="M746.328,554.025h-132a8,8,0,0,1,0-16h132a8,8,0,0,1,0,16Z" transform="translate(-150.951 -250.629)" fill="#e6e6e6"/>
      <path id="Path_51" data-name="Path 51" d="M686.328,520.025h-72a8,8,0,0,1,0-16h72a8,8,0,0,1,0,16Z" transform="translate(-150.951 -250.629)" fill="#6c63ff"/>
      <path id="Path_52" data-name="Path 52" d="M724.961,578.449a26.378,26.378,0,1,0,0,52.756h0a26.378,26.378,0,1,0,0-52.756Z" transform="translate(-150.951 -250.629)" fill="#6c63ff"/>
      <path id="Path_395" data-name="Path 395" d="M722.458,615.782a3.2,3.2,0,0,1-1.926-.64l-.034-.026-7.254-5.549a3.224,3.224,0,1,1,3.923-5.117l4.7,3.6,11.1-14.485a3.222,3.222,0,0,1,4.518-.6h0l-.069.1.071-.1a3.226,3.226,0,0,1,.6,4.519l-13.059,17.03a3.224,3.224,0,0,1-2.564,1.257Z" transform="translate(-150.951 -250.629)" fill="#fff"/>
    </g>
  </g>
</svg>
