<svg width="209" height="128" viewBox="0 0 209 128" fill="none" xmlns="http://www.w3.org/2000/svg">
    <path d="M6.2 98H16V76.2C16 73.4 16 69.4 18.7 66.5C20.6 64.5 22.7 64.2 24.8 64.2C25.8 64.2 27.6 64.3 29.8 65.7L33.8 56.8C31.1 55.2 28.5 54.8 26.1 54.8C23.9 54.8 22 55.1 20.1 56.2C18.7 57 17.1 58.4 16 59.7V55.9H6.2V98Z" fill="#6153AE"/>
    <path d="M57.75 54.8C45.05 54.8 35.25 64 35.25 77C35.25 89.9 45.05 99.3 57.75 99.3C70.45 99.3 80.25 89.9 80.25 77C80.25 64 70.45 54.8 57.75 54.8ZM57.75 90.5C50.05 90.5 45.25 85.2 45.25 77.1C45.25 67.5 51.55 63.6 57.75 63.6C63.95 63.6 70.25 67.5 70.25 77.1C70.25 85.2 65.45 90.5 57.75 90.5Z" fill="#6153AE"/>
    <path d="M100.277 25.1H90.4773V98H100.277V93.6C104.577 98.6 109.877 99.3 112.877 99.3C125.877 99.3 133.277 88.5 133.277 76.9C133.277 63.2 123.877 54.8 112.777 54.8C109.677 54.8 104.277 55.6 100.277 60.8V25.1ZM111.577 63.6C118.677 63.6 123.277 69.6 123.277 77.1C123.277 84.4 118.677 90.5 111.577 90.5C105.377 90.5 99.6773 86 99.6773 77.2C99.6773 68 105.377 63.6 111.577 63.6Z" fill="#6153AE"/>
    <path d="M143.505 55.9V98H153.305V55.9H143.505ZM142.105 38.5C142.105 42.1 144.805 44.8 148.405 44.8C152.005 44.8 154.705 42.1 154.705 38.5C154.705 34.9 152.005 32.2 148.405 32.2C144.805 32.2 142.105 34.9 142.105 38.5Z" fill="#6153AE"/>
    <path d="M165.573 98H175.373V77.8C175.373 64.2 179.873 63.6 184.273 63.6C187.973 63.6 191.973 63.9 191.973 74.6V98H201.773V72.2C201.773 65.7 200.773 62.8 199.173 60.5C197.873 58.7 194.573 54.8 186.773 54.8C184.373 54.8 179.573 55.1 175.373 59.8V55.9H165.573V98Z" fill="#6153AE"/>
    <g style="mix-blend-mode:lighten">
        <circle cx="148.5" cy="38.5" r="7.5" fill="#73C1CE"/>
    </g>
</svg>
