<svg width="206" height="84" viewBox="0 0 206 84" fill="none" xmlns="http://www.w3.org/2000/svg">
    <path id="logo-r" d="M5 77.9H14.8V56.1C14.8 53.3 14.8 49.3 17.5 46.4C19.4 44.4 21.5 44.1 23.6 44.1C24.6 44.1 26.4 44.2 28.6 45.6L32.6 36.7C29.9 35.1 27.3 34.7 24.9 34.7C22.7 34.7 20.8 35 18.9 36.1C17.5 36.9 15.9 38.3 14.8 39.6V35.8H5V77.9Z" fill="#6153AE"/>
    <path id="logo-o" d="M56.55 34.7C43.85 34.7 34.05 43.9 34.05 56.9C34.05 69.8 43.85 79.2 56.55 79.2C69.25 79.2 79.05 69.8 79.05 56.9C79.05 43.9 69.25 34.7 56.55 34.7ZM56.55 70.4C48.85 70.4 44.05 65.1 44.05 57C44.05 47.4 50.35 43.5 56.55 43.5C62.75 43.5 69.05 47.4 69.05 57C69.05 65.1 64.25 70.4 56.55 70.4Z" fill="#6153AE"/>
    <path id="logo-b" d="M99.0773 5H89.2773V77.9H99.0773V73.5C103.377 78.5 108.677 79.2 111.677 79.2C124.677 79.2 132.077 68.4 132.077 56.8C132.077 43.1 122.677 34.7 111.577 34.7C108.477 34.7 103.077 35.5 99.0773 40.7V5ZM110.377 43.5C117.477 43.5 122.077 49.5 122.077 57C122.077 64.3 117.477 70.4 110.377 70.4C104.177 70.4 98.4773 65.9 98.4773 57.1C98.4773 47.9 104.177 43.5 110.377 43.5Z" fill="#6153AE"/>
    <path id="logo-i" d="M142.305 35.8V77.9H152.105V35.8H142.305ZM140.905 18.4C140.905 22 143.605 24.7 147.205 24.7C150.805 24.7 153.505 22 153.505 18.4C153.505 14.8 150.805 12.1 147.205 12.1C143.605 12.1 140.905 14.8 140.905 18.4Z" fill="#6153AE"/>
    <path id= "logo-n" d="M164.373 77.9H174.173V57.7C174.173 44.1 178.673 43.5 183.073 43.5C186.773 43.5 190.773 43.8 190.773 54.5V77.9H200.573V52.1C200.573 45.6 199.573 42.7 197.973 40.4C196.673 38.6 193.373 34.7 185.573 34.7C183.173 34.7 178.373 35 174.173 39.7V35.8H164.373V77.9Z" fill="#6153AE"/>
    <g style="mix-blend-mode:lighten">
        <circle cx="147.3" cy="18.4" r="7.5" fill="#73C1CE"/>
    </g>
</svg>
