<svg xmlns="http://www.w3.org/2000/svg" width="929.394" height="848" viewBox="0 0 929.394 848">
  <circle id="Ellipse_19" data-name="Ellipse 19" cx="424" cy="424" r="424" transform="translate(81.394)" fill="#fff"/>
  <g id="undraw_Content_creator_re_pt5b" transform="translate(-157.944 130)">
    <path id="Path_53" data-name="Path 53" d="M1060.545,710.252H600.107a6.081,6.081,0,0,1-6.074-6.074v-506.6a6.081,6.081,0,0,1,6.074-6.074h460.438a6.081,6.081,0,0,1,6.074,6.074v506.6a6.081,6.081,0,0,1-6.074,6.074ZM600.107,193.93a3.649,3.649,0,0,0-3.645,3.645v506.6a3.649,3.649,0,0,0,3.645,3.645h460.438a3.649,3.649,0,0,0,3.645-3.645v-506.6a3.648,3.648,0,0,0-3.645-3.645Z" transform="translate(-135.944 -191.5)" fill="#3f3d56"/>
    <path id="Path_54" data-name="Path 54" d="M783.806,372.847h-114.2a6.081,6.081,0,0,1-6.074-6.074v-114.2a6.081,6.081,0,0,1,6.074-6.074h114.2a6.081,6.081,0,0,1,6.074,6.074v114.2a6.081,6.081,0,0,1-6.074,6.074ZM669.607,248.93a3.649,3.649,0,0,0-3.645,3.645v114.2a3.649,3.649,0,0,0,3.645,3.645h114.2a3.649,3.649,0,0,0,3.645-3.645v-114.2a3.649,3.649,0,0,0-3.645-3.645Z" transform="translate(-121.011 -179.682)" fill="#f2f2f2"/>
    <path id="Path_55" data-name="Path 55" d="M756.7,384.132H642.5a5.473,5.473,0,0,1-5.467-5.467v-114.2A5.473,5.473,0,0,1,642.5,259H756.7a5.473,5.473,0,0,1,5.467,5.467v114.2a5.473,5.473,0,0,1-5.467,5.467Z" transform="translate(-126.705 -176.996)" fill="#6153ae"/>
    <path id="Path_56" data-name="Path 56" d="M999.673,409.934H642.5a5.467,5.467,0,0,1,0-10.934H999.673a5.467,5.467,0,0,1,0,10.934Z" transform="translate(-126.705 -146.913)" fill="#ccc"/>
    <path id="Path_57" data-name="Path 57" d="M913.417,440.934H642.5a5.467,5.467,0,0,1,0-10.934H913.417a5.467,5.467,0,0,1,0,10.934Z" transform="translate(-126.705 -140.252)" fill="#ccc"/>
    <path id="Path_58" data-name="Path 58" d="M963.434,295.934H805.5a5.467,5.467,0,0,1,0-10.934H963.434a5.467,5.467,0,1,1,0,10.934Z" transform="translate(-91.68 -171.409)" fill="#ccc"/>
    <path id="Path_59" data-name="Path 59" d="M924.019,326.934H805.5a5.467,5.467,0,0,1,0-10.934H924.019a5.467,5.467,0,0,1,0,10.934Z" transform="translate(-91.68 -164.748)" fill="#ccc"/>
    <path id="Path_60" data-name="Path 60" d="M999.673,471.934H642.5a5.467,5.467,0,0,1,0-10.934H999.673a5.467,5.467,0,0,1,0,10.934Z" transform="translate(-126.705 -133.591)" fill="#ccc"/>
    <path id="Path_61" data-name="Path 61" d="M913.417,502.934H642.5a5.467,5.467,0,0,1,0-10.934H913.417a5.467,5.467,0,0,1,0,10.934Z" transform="translate(-126.705 -126.93)" fill="#ccc"/>
    <path id="Path_62" data-name="Path 62" d="M999.673,533.934H642.5a5.467,5.467,0,0,1,0-10.934H999.673a5.467,5.467,0,0,1,0,10.934Z" transform="translate(-126.705 -120.269)" fill="#ccc"/>
    <path id="Path_63" data-name="Path 63" d="M999.673,564.934H642.5a5.467,5.467,0,0,1,0-10.934H999.673a5.467,5.467,0,0,1,0,10.934Z" transform="translate(-126.705 -113.608)" fill="#ccc"/>
    <path id="Path_64" data-name="Path 64" d="M745.736,610.538h-261.2a6.081,6.081,0,0,1-6.074-6.074V442.885a6.081,6.081,0,0,1,6.074-6.074h261.2a6.081,6.081,0,0,1,6.075,6.074V604.464a6.081,6.081,0,0,1-6.074,6.074Z" transform="translate(-160.777 -138.789)" fill="#fff"/>
    <path id="Path_65" data-name="Path 65" d="M745.736,610.538h-261.2a6.081,6.081,0,0,1-6.074-6.074V442.885a6.081,6.081,0,0,1,6.074-6.074h261.2a6.081,6.081,0,0,1,6.075,6.074V604.464a6.081,6.081,0,0,1-6.074,6.074Zm-261.2-171.3a3.649,3.649,0,0,0-3.645,3.645V604.464a3.649,3.649,0,0,0,3.645,3.645h261.2a3.649,3.649,0,0,0,3.645-3.645V442.885a3.648,3.648,0,0,0-3.645-3.645Z" transform="translate(-160.777 -138.789)" fill="#3f3d56"/>
    <path id="Path_66" data-name="Path 66" d="M684.864,499.245H526.93a5.467,5.467,0,0,1,0-10.934H684.864a5.467,5.467,0,0,1,0,10.934Z" transform="translate(-151.538 -127.723)" fill="#ccc"/>
    <path id="Path_67" data-name="Path 67" d="M684.864,530.245H526.93a5.467,5.467,0,0,1,0-10.934H684.864a5.467,5.467,0,0,1,0,10.934Z" transform="translate(-151.538 -121.061)" fill="#ccc"/>
    <path id="Path_68" data-name="Path 68" d="M230.335,515.052H245.23l7.085-57.449H230.333Z" transform="translate(49.493 98.328)" fill="#a0616a"/>
    <path id="Path_69" data-name="Path 69" d="M444.174,692.389h29.333A18.693,18.693,0,0,1,492.2,711.079v.609l-48.025,0Z" transform="translate(-168.145 -83.871)" fill="#2f2e41"/>
    <path id="Path_70" data-name="Path 70" d="M134.876,509.631l14.727,2.226L165.2,456.113l-19.306-3.285Z" transform="translate(28.981 97.302)" fill="#a0616a"/>
    <path id="Path_71" data-name="Path 71" d="M349.859,686.659l29,4.384h0a18.694,18.694,0,0,1,15.688,21.277l-.091.6-47.486-7.177Z" transform="translate(-189.031 -85.103)" fill="#2f2e41"/>
    <path id="Path_72" data-name="Path 72" d="M390.126,462.043l16.537,4.333-1.1,26.812L405.426,542a9.783,9.783,0,1,1-12.947,1.627L387.4,494.635Z" transform="translate(-180.345 -133.367)" fill="#a0616a"/>
    <path id="Path_73" data-name="Path 73" d="M387.582,439.083a13.5,13.5,0,0,1,8.345-12.005,12.621,12.621,0,0,1,13.662,2.2,12.034,12.034,0,0,1,4.011,9.306c.044,15.707-3.5,38.6-3.538,38.83l-.057.364-24.172,8.14Z" transform="translate(-180.681 -141.117)" fill="#73c1ce"/>
    <path id="Path_74" data-name="Path 74" d="M438.966,475.158l36.972-9.57,17.09,57.558.607,214.426-28.272-.177-11.819-173.55L378.222,724.207l-30.372-3.645,66.211-171.9s-3.645-30.372,7.9-45.558l-2.43-15.793Z" transform="translate(-188.843 -132.605)" fill="#2f2e41"/>
    <path id="Path_75" data-name="Path 75" d="M405.642,502.1a5.665,5.665,0,0,1-1.209-4.557l-16.864-50.593a12.871,12.871,0,0,1,3.55-13.585l7.321-6.655,4.961-19.845,28.515,6.97-2.349,9.4,12.905-2.345,27.182,60.54-56.817,22.71-2.8.044A5.664,5.664,0,0,1,405.642,502.1Z" transform="translate(-180.45 -145.224)" fill="#73c1ce"/>
    <path id="Path_76" data-name="Path 76" d="M434.907,451.007l16.293-5.178,13.4,23.248,25.978,41.329a9.783,9.783,0,1,1-10.073,8.3L450.023,480.01Z" transform="translate(-170.137 -136.851)" fill="#a0616a"/>
    <path id="Path_77" data-name="Path 77" d="M419.718,433.573a13.5,13.5,0,0,1,.636-14.606,12.628,12.628,0,0,1,12.721-5.446,12.034,12.034,0,0,1,8.364,5.721c8.432,13.251,17.673,34.5,17.766,34.708l.146.338-16.078,19.8Z" transform="translate(-173.796 -143.835)" fill="#73c1ce"/>
    <circle id="Ellipse_17" data-name="Ellipse 17" cx="22.656" cy="22.656" r="22.656" transform="translate(221.393 212.632)" fill="#a0616a"/>
    <circle id="Ellipse_18" data-name="Ellipse 18" cx="21.824" cy="21.824" r="21.824" transform="translate(182.188 182.085)" fill="#2f2e41"/>
    <path id="Path_78" data-name="Path 78" d="M371.129,377.828a21.825,21.825,0,0,0,33.7-11.459,21.825,21.825,0,1,1-42.572-8.95,21.817,21.817,0,0,0,8.871,20.409Z" transform="translate(-185.942 -155.848)" fill="#2f2e41"/>
    <path id="Path_79" data-name="Path 79" d="M450.944,377.281c-3.81-6.821-5.268-9.67-10.18-13.818-4.344-3.668-9.687-4.745-14-1.27a25.958,25.958,0,1,0,15.4,20.773C445.911,382.441,447.2,377.807,450.944,377.281Z" transform="translate(-179.631 -155.277)" fill="#2f2e41"/>
  </g>
</svg>
